<svg width="162" height="30" viewBox="0 0 162 30" fill="none" xmlns="http://www.w3.org/2000/svg">
<path fill-rule="evenodd" clip-rule="evenodd" d="M144.924 0.000707509C145.132 -0.0225658 145.202 0.51272 145.202 3.9339L144.46 4.05026C144.042 4.09681 142.975 4.51573 142.071 4.95792C141.027 5.46993 139.983 6.23795 139.148 7.12234C138.383 7.89036 137.525 9.12384 137.107 9.98495C136.713 10.8228 136.342 11.8468 136.156 13.0105H132.213L132.561 11.5443C132.746 10.753 133.35 9.21694 133.883 8.12309C134.625 6.58705 135.228 5.74921 136.597 4.39936C137.641 3.37534 138.986 2.32804 139.867 1.86257C140.702 1.42038 142.117 0.815273 142.999 0.535993C143.903 0.256714 144.761 0.000707509 144.924 0.000707509ZM150.954 0.466174C151.812 0.72218 153.042 1.16437 153.668 1.46693C154.318 1.76948 155.454 2.46768 156.219 3.04951C156.985 3.63134 157.982 4.56227 158.446 5.12083C158.91 5.67939 159.583 6.61033 159.931 7.19216C160.302 7.77399 160.951 9.24021 161.345 10.4504C161.763 11.6606 162.041 12.7312 161.995 12.8243C161.949 12.9407 161.09 13.0105 158.307 13.0105L157.889 11.6839C157.681 10.9392 157.17 9.84532 156.799 9.21694C156.405 8.61183 155.709 7.70417 155.245 7.16889C154.758 6.65687 153.854 5.88885 153.204 5.49321C152.578 5.07429 151.372 4.51573 149.029 3.77098L148.913 2.07203C148.844 0.815273 148.89 0.326534 149.099 0.186894C149.284 0.0938006 150.096 0.233441 150.954 0.466174ZM6.01083 4.39936C10.8353 4.37609 11.0441 4.39936 11.4848 4.8881C11.9255 5.35357 11.9487 5.79576 12.0646 11.265C12.1806 16.7342 12.2038 17.1764 12.6445 17.6651C12.8996 17.9212 13.4795 18.2703 13.9202 18.4099C14.5929 18.6194 14.8944 18.5961 15.6598 18.2237C16.1701 17.991 16.7036 17.5255 16.8659 17.1997C17.0747 16.7808 17.1675 15.0585 17.1675 11.3348C17.1675 8.09982 17.2602 5.77249 17.4226 5.40011C17.5618 5.02774 17.7937 4.67864 17.9329 4.58555C18.0953 4.49246 19.2782 4.39936 22.9661 4.39936L23.3604 5.28375C23.7084 6.02849 23.7547 6.95943 23.7779 12.0796C23.7779 17.7117 23.7547 18.0841 23.2445 19.2943C22.9661 19.9925 22.3631 21.063 21.9224 21.6914C21.4817 22.2965 20.4611 23.2042 19.6725 23.7162C18.8607 24.2282 17.5386 24.8799 16.7036 25.1824C15.4974 25.5781 14.6624 25.6712 12.5285 25.6712C10.7657 25.6712 9.35086 25.5315 8.35349 25.2755C7.51848 25.0428 6.21958 24.5773 5.45416 24.1817C4.68874 23.8093 3.64497 23.1576 3.13469 22.7155C2.62441 22.2733 1.88218 21.3423 1.46468 20.6674C1.04717 19.9692 0.560085 18.7823 0.351333 18.0142C0.0729965 16.9437 -0.0197821 15.4076 0.00341257 11.3348C0.00341257 8.40237 0.0729965 5.84231 0.165775 5.63285C0.235359 5.40011 0.467306 5.02774 0.652863 4.81828C0.954394 4.44591 1.53426 4.39936 6.01083 4.39936ZM132.259 16.9669H136.156L136.272 17.735C136.318 18.1306 136.736 19.2245 137.177 20.1088C137.687 21.1561 138.452 22.2034 139.334 23.0413C140.099 23.8093 141.329 24.6704 142.187 25.0893C143.022 25.485 144.042 25.8573 145.202 26.0435V28.0218C145.202 29.1156 145.132 30 145.04 30C144.924 30 144.135 29.7673 143.23 29.5113C142.349 29.232 140.888 28.6501 139.983 28.1847C138.963 27.6261 137.733 26.6952 136.597 25.5781C135.228 24.2282 134.625 23.3904 133.883 21.8543C133.35 20.7605 132.77 19.2245 132.584 18.4332L132.259 16.9669ZM158.261 16.9669H160.07C161.74 16.9669 161.902 16.9902 161.902 17.4324C161.902 17.6651 161.624 18.6892 161.299 19.6899C160.974 20.6907 160.395 22.0173 160 22.6689C159.606 23.2973 158.91 24.2748 158.446 24.8333C157.982 25.3919 156.985 26.3228 156.219 26.9046C155.454 27.4865 154.294 28.208 153.668 28.5105C153.019 28.8131 151.836 29.2553 151.001 29.488C150.166 29.744 149.354 29.8836 149.191 29.7905C148.983 29.6742 148.913 29.1156 149.029 26.2064L150.653 25.6479C151.534 25.3453 152.833 24.717 153.529 24.2282C154.225 23.7395 155.083 22.9947 155.477 22.5525C155.872 22.0871 156.475 21.2492 156.846 20.6907C157.194 20.1088 157.658 19.0383 157.866 18.2935L158.261 16.9669ZM48.2947 4.283L48.7586 4.86483C49.1065 5.30702 49.1993 5.81903 49.1993 6.95943C49.1993 8.44892 49.1529 8.54201 47.4829 11.1486C46.5551 12.6148 44.8851 15.1284 43.7717 16.7342C42.6584 18.3401 41.7538 19.8296 41.7538 20.0623C41.7538 20.4114 42.0785 20.4579 45.0706 20.4579C47.8772 20.4579 48.4339 20.5278 48.7818 20.8769C49.1065 21.1794 49.1993 21.6449 49.1993 22.7853C49.1993 23.7162 49.0601 24.4842 48.8514 24.7635C48.5498 25.2057 48.2251 25.229 40.6869 25.2988C36.3726 25.3453 31.5713 25.2988 30.0173 25.1824C27.6978 25.0195 27.118 24.9031 26.7005 24.5308C26.2134 24.1119 26.1902 23.8791 26.3294 19.8761L27.9298 17.4324C28.8112 16.0826 30.4116 13.7552 31.4786 12.2425C32.5687 10.7064 33.3573 9.37985 33.2878 9.17039C33.195 8.89111 32.7079 8.82129 30.7363 8.82129C29.4142 8.82129 28.0922 8.70492 27.837 8.58856C27.4427 8.3791 27.3731 8.12309 27.3731 6.61033C27.3731 5.46993 27.4891 4.79501 27.6746 4.70192C27.837 4.58555 28.5792 4.44591 29.3447 4.37609C30.1101 4.283 34.7026 4.23645 48.2947 4.283ZM59.8456 4.21318C62.6058 4.21318 65.9458 4.283 67.2679 4.37609C69.1699 4.51573 69.9817 4.70192 70.8631 5.14411C71.5126 5.46993 72.5099 6.26123 73.0898 6.86633C73.6697 7.49471 74.4583 8.58856 74.8062 9.28676C75.3397 10.2875 75.502 10.9624 75.5716 12.4287C75.6412 13.4527 75.5716 14.7094 75.4325 15.2214C75.2933 15.7335 74.8526 16.6644 74.4119 17.316C73.9248 18.0841 73.2058 18.7357 72.3708 19.2245C71.6517 19.6666 70.5152 20.0856 69.7034 20.2252C68.938 20.3416 67.5231 20.4579 66.5721 20.4579C65.4819 20.4579 64.7165 20.5743 64.531 20.7605C64.3686 20.9234 64.2526 21.7147 64.2526 22.7387C64.2526 23.9257 64.1599 24.5075 63.9047 24.7635C63.7192 24.973 62.9073 25.1824 62.0027 25.2522C61.1445 25.3453 58.8947 25.3453 57.0159 25.2522C55.1371 25.1824 53.3743 24.9962 53.1192 24.8799C52.8641 24.7635 52.5393 24.4144 52.377 24.1351C52.1682 23.7395 52.0754 21.4587 52.0058 15.6869C51.9595 11.3348 51.9827 7.3318 52.0754 6.77324C52.145 6.19141 52.4465 5.51648 52.7945 5.12083C53.1656 4.70191 53.6991 4.39936 54.1398 4.32954C54.5341 4.283 57.1087 4.23645 59.8456 4.21318ZM64.3222 13.3829L64.3686 16.3851C66.201 16.5015 66.6649 16.3851 67.2679 15.9895C67.7318 15.6869 68.2653 15.0818 68.4973 14.6396C68.7988 14.0578 68.8916 13.5225 68.822 12.7778C68.7524 12.1959 68.4973 11.4744 68.2653 11.1486C68.0102 10.8228 67.4767 10.3806 67.036 10.1711C66.5953 9.93841 65.8299 9.75222 65.366 9.75222C64.8325 9.75222 64.4382 9.86859 64.3918 10.0548C64.3222 10.2177 64.299 11.7072 64.3222 13.3829ZM126.322 4.16663C126.507 4.16663 126.762 4.37609 126.878 4.6321C127.041 4.91138 127.11 8.86784 127.11 14.9887C127.11 21.1096 127.041 25.0661 126.878 25.3453C126.762 25.6013 126.507 25.8108 126.298 25.8108C126.113 25.8108 125.811 25.5781 125.603 25.2755C125.301 24.8333 125.255 23.2973 125.231 14.9887C125.231 6.23795 125.255 5.14411 125.603 4.67864C125.811 4.39936 126.136 4.16663 126.322 4.16663ZM84.8727 4.39936C88.5606 4.39936 89.9987 4.46918 90.3002 4.67864C90.5322 4.86483 90.8105 5.53975 90.9497 6.37759C91.1121 7.26198 91.1816 10.6599 91.1352 15.6869C91.0657 21.4587 90.9729 23.7395 90.7641 24.1351C90.6018 24.4144 90.2307 24.7635 89.9523 24.9264C89.5812 25.1359 88.0272 25.229 84.9887 25.229C81.4863 25.229 80.4425 25.1592 79.9554 24.8799C79.6075 24.6937 79.2132 24.2748 79.0508 23.9722C78.8421 23.5533 78.7493 21.2725 78.7493 15.1284C78.7493 10.5668 78.8421 6.44741 78.9349 5.95867C79.0276 5.49321 79.2596 4.93465 79.4683 4.74846C79.7699 4.46918 80.7208 4.39936 84.8727 4.39936ZM101.016 4.42264L103.8 5.81903C105.33 6.61033 107.951 7.96018 109.598 8.84456C111.268 9.72895 112.869 10.4504 113.147 10.4504C113.425 10.4504 113.727 10.2875 113.773 10.1013C113.843 9.91514 113.889 8.68165 113.889 7.35507C113.889 5.79576 113.982 4.8881 114.168 4.67864C114.353 4.49246 115.258 4.39936 116.905 4.39936C118.922 4.37609 119.41 4.44591 119.688 4.77173C119.989 5.12083 120.036 6.51723 120.036 14.4302C120.036 23.4835 120.036 23.6929 119.062 24.9962L115.722 25.0661C112.614 25.1126 112.312 25.0893 111.338 24.5773C110.781 24.2748 108.554 23.018 106.421 21.7845C104.287 20.551 102.315 19.527 102.06 19.527C101.642 19.527 101.596 19.6899 101.596 21.738C101.596 23.7628 101.55 23.9955 101.039 24.5308C100.506 25.0661 100.32 25.1126 98.14 25.1126C95.867 25.1126 95.7974 25.0893 95.3335 24.4842C94.8696 23.8558 94.8464 23.5998 94.916 14.5C94.9856 7.05252 95.0551 5.09756 95.3103 4.79501C95.5654 4.46918 96.0989 4.39936 101.016 4.42264ZM145.086 7.63435L145.156 10.2642C145.179 11.7072 145.132 12.9174 145.04 12.9639C144.97 12.9872 143.764 12.9872 139.89 12.8941L140.354 11.9166C140.609 11.3581 141.259 10.4271 141.792 9.84532C142.326 9.26348 143.3 8.54201 143.926 8.21618L145.086 7.63435ZM150.119 8.07654C150.653 8.286 151.488 8.82129 151.998 9.28676C152.508 9.72895 153.227 10.6133 153.598 11.265C153.946 11.8934 154.248 12.545 154.248 12.7079C154.248 12.9174 153.575 13.0105 148.913 13.0105L148.89 10.4737C148.867 9.10057 148.913 7.89036 148.983 7.82054C149.076 7.75072 149.586 7.86708 150.119 8.07654ZM139.867 16.9669H145.202V22.3198L144.344 21.9474C143.857 21.7612 143.115 21.3191 142.697 20.97C142.256 20.6209 141.607 19.9692 141.259 19.527C140.888 19.0615 140.424 18.3168 140.238 17.8281L139.867 16.9669ZM148.913 16.9669H151.581C153.552 16.9669 154.248 17.0368 154.248 17.2695C154.248 17.4091 153.946 18.0841 153.575 18.7124C153.204 19.3641 152.601 20.1554 152.253 20.5045C151.882 20.8303 151.163 21.3423 150.653 21.5983C150.142 21.8776 149.539 22.0871 149.331 22.0871C148.96 22.0871 148.913 21.8078 148.913 19.527V16.9669Z" fill="#FFBA00"/>
</svg>
